# xmcd
#
# Track frame offsets:
#	150
#	13254
#	27155
#	40392
#	55926
#	71771
#	86885
#	98010
#	115023
#	129354
#	149327
#	159915
#	182094
#	194843
#	208859
#	217186
#	234049
#	249782
#	266691
#	280116
#
# Disc length: 3971 seconds
#
# Revision: 3
# Processed by: cddbd v1.4PL0 Copyright (c) Steve Scherf et al.
# Submitted via: EasyCDDAExtractor 5.0.7
#
DISCID=240f8114
DTITLE=Stodola Band - Country parada 1
DYEAR=2003
DGENRE=Country
TTITLE0=Oh, Ruby
TTITLE1=Zlaty kocar
TTITLE2=Ja tu zemi znam
TTITLE3=Lasko, mne ubyva sil
TTITLE4=Boty proti lasce
TTITLE5=Sundej z hodin zavazi
TTITLE6=Slonova kost
TTITLE7=Cekej tise
TTITLE8=Manekyna
TTITLE9=Montgomery
TTITLE10=Je to zle
TTITLE11=Par deci vina
TTITLE12=Pulnoc je obdobi zle
TTITLE13=Ved mne dal, cesto ma
TTITLE14=Rad, rad, rad
TTITLE15=Prvni meloun
TTITLE16=Jen poust a pisek
TTITLE17=Bajecna zenska
TTITLE18=Az na vrcholky hor
TTITLE19=Pampelisky
EXTD=
EXTT0=
EXTT1=
EXTT2=
EXTT3=
EXTT4=
EXTT5=
EXTT6=
EXTT7=
EXTT8=
EXTT9=
EXTT10=
EXTT11=
EXTT12=
EXTT13=
EXTT14=
EXTT15=
EXTT16=
EXTT17=
EXTT18=
EXTT19=
PLAYORDER=
